<svg width="436" height="140" viewBox="0 0 436 140" fill="none" xmlns="http://www.w3.org/2000/svg">
<mask id="mask0_376_273" style="mask-type:luminance" maskUnits="userSpaceOnUse" x="0" y="14" width="180" height="112">
<path d="M180 14.241H0V125.417H180V14.241Z" fill="white"/>
</mask>
<g mask="url(#mask0_376_273)">
<path d="M113.651 78.7487C115.446 76.4553 118.761 76.0516 121.054 77.8468C123.347 79.642 123.751 82.9565 121.956 85.2499L98.1551 115.655C98.1514 115.659 98.1477 115.664 98.144 115.669C89.2041 127.009 72.8211 129.029 61.399 120.26L61.13 120.051L61.0243 119.966C58.8308 118.145 58.4775 114.897 60.252 112.645C62.0264 110.393 65.2671 109.977 67.55 111.684L67.6579 111.767L67.8191 111.893C74.6721 117.154 84.4996 115.941 89.8611 109.139L113.651 78.7487Z" fill="#226DB4"/>
<path d="M107.631 17.2391C111.317 15.9072 115.278 15.4183 119.168 15.8029L119.168 15.803C127.006 16.5756 134.187 20.887 138.545 27.4568L175.893 83.7454L176.08 84.0304C183.889 96.1286 180.538 112.293 168.504 120.279H168.503C156.47 128.263 140.275 125.07 132.162 113.173L131.972 112.891L113.409 84.9168L113.336 84.8025C111.82 82.3882 112.499 79.1921 114.888 77.607C117.314 75.9967 120.587 76.6586 122.197 79.0853L140.76 107.059L140.76 107.059C145.587 114.333 155.397 116.318 162.672 111.491C169.948 106.662 171.932 96.851 167.105 89.5766H167.105L129.757 33.2879L129.756 33.2873C127.154 29.3638 122.822 26.7607 118.132 26.2987L118.13 26.2986C115.797 26.0679 113.416 26.3629 111.216 27.1579L111.215 27.1584C109.271 27.8607 108.228 28.7834 106.58 31.1599C102.288 37.3459 97.8141 43.4989 93.5222 49.5396L93.5224 49.5398C87.5459 57.9544 81.569 66.3696 75.5903 74.7831C70.3029 82.2248 65.011 89.6764 59.7209 97.1213L59.7205 97.1216C58.5808 98.7253 57.4412 100.329 56.3012 101.934C55.1613 103.538 54.021 105.143 52.8808 106.747C51.1937 109.121 47.9015 109.678 45.5276 107.991C43.1536 106.304 42.5969 103.012 44.284 100.638C45.4237 99.0339 46.5634 97.4297 47.7034 95.8252C48.8433 94.2208 49.9834 92.6161 51.1235 91.0118C56.4153 83.5647 61.7018 76.1208 66.9928 68.674L66.9929 68.6737C72.9708 60.2614 78.9471 51.8473 84.9237 43.4326L84.9242 43.4319C89.3121 37.2561 93.6622 31.277 97.9138 25.1481C100.262 21.7627 102.879 18.9557 107.631 17.2391Z" fill="#E42527"/>
<path d="M57.0031 14.8832C60.2941 14.0177 64.9342 13.4186 70.106 14.6402C75.3633 15.8819 80.8193 18.926 85.7254 24.7919C87.594 27.0259 87.2975 30.3518 85.0635 32.2203C82.8295 34.0888 79.5037 33.7924 77.6352 31.5584C74.1303 27.3679 70.6327 25.6017 67.6816 24.9046C64.6464 24.1877 61.8241 24.5206 59.6837 25.0837C59.6827 25.0839 59.6816 25.0841 59.6806 25.0844C58.3218 25.4411 57.1084 26.2923 56.2783 27.495L13.2061 90.0388C13.191 90.0607 13.1756 90.0825 13.1602 90.1042C8.18052 97.1058 9.76684 106.797 16.6822 111.849L16.8619 111.978L17.0568 112.118C21.4647 115.252 26.938 115.791 31.6648 114.021C34.3922 112.999 37.4312 114.382 38.4528 117.109C39.4744 119.837 38.0915 122.876 35.3641 123.898L35.1794 123.966C27.3513 126.831 18.2676 125.92 10.9453 120.714C10.9399 120.71 10.9345 120.706 10.9291 120.702L10.7336 120.562C-1.05407 112.178 -3.82004 95.8363 4.53218 84.0389L47.595 21.5087L47.5981 21.5042C49.83 18.2703 53.1518 15.8941 57.0031 14.8832Z" fill="#226DB4"/>
</g>
<path d="M220 45.5859V42.334L242.91 9.22852H222.314V2.69531H253.691V5.94727L231.338 39.0527H253.047V45.5859H220Z" fill="black"/>
<path d="M255.742 29.9707C255.742 20.127 263.857 13.5352 273.291 13.5352C282.812 13.5352 290.137 20.2148 290.137 29.8242C290.137 39.6973 282.432 46.1719 272.969 46.1719C263.418 46.1719 255.742 39.5508 255.742 29.9707ZM273.174 40.4004C279.443 40.4004 282.08 35.3613 282.08 29.8828C282.08 24.1113 279.15 19.3066 272.998 19.3066C266.67 19.3066 264.15 24.3457 264.15 30.0879C264.15 35.6543 267.109 40.4004 273.174 40.4004Z" fill="black"/>
<path d="M295.615 45.5859V0H303.115V19.1895C305.137 15.293 309.268 13.5352 313.604 13.5352C321.104 13.5352 324.854 18.8086 324.854 25.957V45.5859H317.295V26.6895C317.295 22.1777 314.951 19.7168 310.586 19.7168C305.781 19.7168 303.115 22.6758 303.115 27.1582V45.5859H295.615Z" fill="black"/>
<path d="M329.746 29.9707C329.746 20.127 337.861 13.5352 347.295 13.5352C356.816 13.5352 364.141 20.2148 364.141 29.8242C364.141 39.6973 356.436 46.1719 346.973 46.1719C337.422 46.1719 329.746 39.5508 329.746 29.9707ZM347.178 40.4004C353.447 40.4004 356.084 35.3613 356.084 29.8828C356.084 24.1113 353.154 19.3066 347.002 19.3066C340.674 19.3066 338.154 24.3457 338.154 30.0879C338.154 35.6543 341.113 40.4004 347.178 40.4004Z" fill="black"/>
<path d="M220 138.682V67.1973H237.529L258.135 119.297L278.594 67.1973H295.732V138.682H282.939V84.1895L260.43 138.682H254.277L232.5 84.1895V138.682H220Z" fill="black"/>
<path d="M362.529 114.268L373.564 119.004C369.121 132.578 356.328 139.658 342.51 139.658C319.463 139.658 306.768 125.059 306.768 102.598C306.768 82.0898 321.025 66.1719 342.119 66.1719C355.645 66.1719 367.461 72.666 372.832 85.459L361.406 90.293C358.379 82.4316 351.299 76.9629 342.705 76.9629C327.568 76.9629 321.318 89.9023 321.318 103.086C321.318 116.855 328.154 128.574 343.047 128.574C352.471 128.574 359.307 122.861 362.529 114.268Z" fill="black"/>
<path d="M383.379 138.682V67.1973H408.232C423.271 67.1973 435.039 73.252 435.039 89.707C435.039 107.822 420.732 111.729 405.449 111.729H397.246V138.682H383.379ZM397.246 101.768H408.135C416.68 101.768 421.514 98.252 421.514 89.6094C421.514 80.625 416.24 77.6953 408.135 77.6953H397.246V101.768Z" fill="black"/>
</svg>
